<?xml version="1.0" encoding="UTF-8"?>
<!DOCTYPE svg PUBLIC "-//W3C//DTD SVG 1.1//EN" "http://www.w3.org/Graphics/SVG/1.1/DTD/svg11.dtd">
<!-- Creator: CorelDRAW 2020 (64 Bit) -->
<svg xmlns="http://www.w3.org/2000/svg" xml:space="preserve" width="92.6624mm" height="27.0537mm" version="1.1" style="shape-rendering:geometricPrecision; text-rendering:geometricPrecision; image-rendering:optimizeQuality; fill-rule:evenodd; clip-rule:evenodd"
viewBox="0 0 3089.06 901.88"
 xmlns:xlink="http://www.w3.org/1999/xlink"
 xmlns:xodm="http://www.corel.com/coreldraw/odm/2003">
 <defs>
  <style type="text/css">
   <![CDATA[
    .fil1 {fill:#023047}
    .fil0 {fill:url(#id0)}
   ]]>
  </style>
  <linearGradient id="id0" gradientUnits="userSpaceOnUse" x1="1586.97" y1="276.88" x2="1572.69" y2="1119.13">
   <stop offset="0" style="stop-opacity:1; stop-color:#023047"/>
   <stop offset="1" style="stop-opacity:1; stop-color:#219EBC"/>
  </linearGradient>
 </defs>
 <g id="Camada_x0020_1">
  <metadata id="CorelCorpID_0Corel-Layer"/>
  <path class="fil0" d="M130.1 0c104.63,92.32 257.01,283.28 449.84,557.89 357.1,38.19 674.89,141.89 961.42,297.69 333.19,-178.42 656.89,-271.42 972.45,-291.07 126.93,-223.91 274.39,-406.76 436.61,-560.1 -600.2,109.27 -1118.5,261.81 -1406.85,535.84 -238.71,-266.42 -763.02,-426.75 -1413.46,-540.25z"/>
  <path class="fil1" d="M-0 240.35c63.95,16.17 127.9,32.34 191.84,48.51 119.08,138.19 238.15,276.37 357.23,414.56 433.68,25.61 752.67,96.4 992.29,198.46 -250.52,-101.38 -595.51,-151.48 -1051.83,-141.12 -171.49,-206.75 -335.67,-384.21 -489.53,-520.4z"/>
  <path class="fil1" d="M3089.06 239.8c-63.95,16.17 -127.9,32.34 -191.84,48.51 -119.08,138.19 -238.15,276.37 -357.23,414.56 -433.68,25.61 -752.67,96.4 -992.29,198.46 250.52,-101.38 595.51,-151.48 1051.83,-141.12 171.49,-206.75 335.67,-384.21 489.53,-520.4z"/>
 </g>
</svg>
